<svg width="24" height="23" viewBox="0 0 24 23" fill="none" xmlns="http://www.w3.org/2000/svg">
<path d="M12.1102 17.0463C11.3771 17.0463 10.7394 16.7619 10.3037 16.2367C9.89762 15.7479 9.72491 15.1035 9.82904 14.4683L10.3292 11.4211L10.2138 11.4779C9.63542 11.7623 8.92535 11.5443 8.62802 10.9911C8.33069 10.4379 8.5586 9.75872 9.13695 9.47432L11.3136 8.40392C11.7079 8.20992 12.1826 8.24432 12.5418 8.49272C12.901 8.74112 13.0842 9.16152 13.0152 9.58032L12.16 14.7899C12.3314 14.7727 12.7735 14.6695 13.5964 14.1227C14.1305 13.7675 14.8644 13.8939 15.2353 14.4047C15.6066 14.9155 15.4745 15.6175 14.9405 15.9723C13.9122 16.6563 13.0302 17.0063 12.2449 17.0431C12.1997 17.0455 12.1545 17.0463 12.1102 17.0463Z" fill="#6B5B54"/>
<path d="M12.3076 7.46632C13.0335 7.46632 13.6219 6.90345 13.6219 6.20912C13.6219 5.51479 13.0335 4.95192 12.3076 4.95192C11.5817 4.95192 10.9933 5.51479 10.9933 6.20912C10.9933 6.90345 11.5817 7.46632 12.3076 7.46632Z" fill="#6B5B54"/>
<path d="M11.9718 22.3159C5.63049 22.3159 0.471802 17.3815 0.471802 11.3159C0.471802 5.25032 5.63049 0.315918 11.9718 0.315918C18.3131 0.315918 23.4718 5.25072 23.4718 11.3159C23.4718 17.3811 18.3127 22.3159 11.9718 22.3159ZM11.9718 2.56872C6.92937 2.56872 2.827 6.49272 2.827 11.3159C2.827 16.1391 6.92937 20.0631 11.9718 20.0631C17.0142 20.0631 21.1166 16.1391 21.1166 11.3159C21.1166 6.49272 17.0142 2.56872 11.9718 2.56872Z" fill="#6B5B54"/>
</svg>
