<svg width="1920" height="36" viewBox="0 0 1920 36" fill="none" xmlns="http://www.w3.org/2000/svg">
<g filter="url(#filter0_i_510_1594)">
<path fill-rule="evenodd" clip-rule="evenodd" d="M0 18.9153L80 16.0678C160 13.2203 320 7.52543 480 4.67798C640 1.83052 800 0 960 0C1120 0 1280 1.83052 1440 4.67798C1600 7.52543 1760 13.2203 1840 16.0678L1920 18.9153V36H1840C1760 36 1600 36 1440 36C1280 36 1120 36 960 36C800 36 640 36 480 36C320 36 160 36 80 36H0L0 18.9153Z" fill="#F6F6F6" fill-opacity="0.95"/>
</g>
<defs>
<filter id="filter0_i_510_1594" x="0" y="0" width="1920" height="40" filterUnits="userSpaceOnUse" color-interpolation-filters="sRGB">
<feFlood flood-opacity="0" result="BackgroundImageFix"/>
<feBlend mode="normal" in="SourceGraphic" in2="BackgroundImageFix" result="shape"/>
<feColorMatrix in="SourceAlpha" type="matrix" values="0 0 0 0 0 0 0 0 0 0 0 0 0 0 0 0 0 0 127 0" result="hardAlpha"/>
<feOffset dy="4"/>
<feGaussianBlur stdDeviation="2"/>
<feComposite in2="hardAlpha" operator="arithmetic" k2="-1" k3="1"/>
<feColorMatrix type="matrix" values="0 0 0 0 0 0 0 0 0 0 0 0 0 0 0 0 0 0 0.25 0"/>
<feBlend mode="normal" in2="shape" result="effect1_innerShadow_510_1594"/>
</filter>
</defs>
</svg>
